<svg width="32" height="32" viewBox="0 0 32 32" fill="none" xmlns="http://www.w3.org/2000/svg">
<g id="shopping-basket-01">
<path id="Vector" d="M5.16389 22.6925L3.55915 13.1197C3.31651 11.6724 3.1952 10.9487 3.58368 10.4743C3.97217 10 4.68619 10 6.11423 10H25.8859C27.3139 10 28.0279 10 28.4164 10.4743C28.8048 10.9487 28.6835 11.6724 28.441 13.1197L26.8362 22.6925C26.3043 25.8655 26.0383 27.4519 24.9524 28.3927C23.8667 29.3333 22.3014 29.3333 19.171 29.3333H12.8291C9.69865 29.3333 8.13341 29.3333 7.04757 28.3927C5.96173 27.4519 5.69579 25.8655 5.16389 22.6925Z" stroke="#313033" stroke-width="2"/>
<path id="Vector_2" d="M23.3333 9.99996C23.3333 5.94987 20.0501 2.66663 16 2.66663C11.9499 2.66663 8.66663 5.94987 8.66663 9.99996" stroke="#313033" stroke-width="2"/>
</g>
</svg>
